<svg width="29" height="29" viewBox="0 0 29 29" fill="none" xmlns="http://www.w3.org/2000/svg">
<path d="M13 9.66663C11.4098 9.67015 9.88552 10.3034 8.76107 11.4279C7.63661 12.5523 7.00352 14.0764 7 15.6666C7 17.2579 7.63194 18.784 8.75716 19.9092C9.88238 21.0344 11.4087 21.6666 13 21.6666C13.7884 21.6684 14.5694 21.5143 15.2982 21.2134C16.0269 20.9125 16.6889 20.4706 17.2464 19.9131C17.8039 19.3556 18.2456 18.6935 18.5465 17.9648C18.8475 17.2361 19.0018 16.4551 19 15.6666" stroke="#44475C" stroke-width="2" stroke-miterlimit="10"/>
<path d="M12.9998 17.6666C14.1044 17.6666 14.9998 16.7712 14.9998 15.6666C14.9998 14.5621 14.1044 13.6666 12.9998 13.6666C11.8952 13.6666 10.9998 14.5621 10.9998 15.6666C10.9998 16.7712 11.8952 17.6666 12.9998 17.6666Z" fill="#2E3192"/>
<path d="M13 3.66663C9.8174 3.66663 6.76509 4.93084 4.51465 7.18127C2.26421 9.43171 1 12.484 1 15.6666C1 18.8492 2.26421 21.9015 4.51465 24.1519C6.76509 26.4023 9.8174 27.6666 13 27.6666C16.1826 27.6666 19.2346 26.4023 21.485 24.1519C23.7355 21.9015 25 18.8492 25 15.6666" stroke="#44475C" stroke-width="2" stroke-miterlimit="10"/>
<path d="M12.9998 15.6667L17.6931 10.9867" stroke="#44475C" stroke-width="2" stroke-miterlimit="10"/>
<path d="M27.6665 6.65332L23.3465 10.9733H17.6932V5.31999L22.0132 1V6.65332H27.6665Z" stroke="#44475C" stroke-width="2" stroke-linejoin="round"/>
</svg>
