<svg width="60" height="60" viewBox="0 0 60 60" fill="none" xmlns="http://www.w3.org/2000/svg">
<path d="M10.7809 31.875C9.64858 31.8799 8.56408 32.3319 7.76343 33.1326C6.96278 33.9332 6.51079 35.0177 6.50586 36.15V49.1625C6.50586 50.2963 6.95626 51.3837 7.75798 52.1854C8.5597 52.9871 9.64706 53.4375 10.7809 53.4375C11.9147 53.4375 13.002 52.9871 13.8037 52.1854C14.6055 51.3837 15.0559 50.2963 15.0559 49.1625V36.1688C15.0559 35.0332 14.6061 33.9439 13.8049 33.1392C13.0037 32.3345 11.9164 31.88 10.7809 31.875ZM13.1246 49.1812C13.1246 49.8178 12.8718 50.4282 12.4217 50.8783C11.9716 51.3284 11.3611 51.5813 10.7246 51.5813C10.0881 51.5813 9.47764 51.3284 9.02755 50.8783C8.57747 50.4282 8.32461 49.8178 8.32461 49.1812V36.1688C8.32461 35.5322 8.57747 34.9218 9.02755 34.4717C9.47764 34.0216 10.0881 33.7688 10.7246 33.7688C11.3611 33.7688 11.9716 34.0216 12.4217 34.4717C12.8718 34.9218 13.1246 35.5322 13.1246 36.1688V49.1812Z" fill="#3C57DE"/>
<path d="M23.5875 19.5564C22.4552 19.5613 21.3707 20.0133 20.5701 20.814C19.7694 21.6146 19.3174 22.6991 19.3125 23.8314V49.1814C19.3125 50.3152 19.7629 51.4026 20.5646 52.2043C21.3663 53.006 22.4537 53.4564 23.5875 53.4564C24.7213 53.4564 25.8087 53.006 26.6104 52.2043C27.4121 51.4026 27.8625 50.3152 27.8625 49.1814V23.8314C27.8625 22.6976 27.4121 21.6102 26.6104 20.8085C25.8087 20.0068 24.7213 19.5564 23.5875 19.5564ZM25.9875 49.1814C25.9875 49.8179 25.7346 50.4284 25.2846 50.8785C24.8345 51.3285 24.224 51.5814 23.5875 51.5814C22.951 51.5814 22.3405 51.3285 21.8904 50.8785C21.4404 50.4284 21.1875 49.8179 21.1875 49.1814V23.8314C21.1875 23.1949 21.4404 22.5844 21.8904 22.1343C22.3405 21.6843 22.951 21.4314 23.5875 21.4314C24.224 21.4314 24.8345 21.6843 25.2846 22.1343C25.7346 22.5844 25.9875 23.1949 25.9875 23.8314V49.1814Z" fill="#3C57DE"/>
<path d="M36.4117 31.875C35.2794 31.8799 34.1949 32.3319 33.3943 33.1326C32.5936 33.9332 32.1417 35.0177 32.1367 36.15V49.1625C32.1367 50.2963 32.5871 51.3837 33.3888 52.1854C34.1906 52.9871 35.2779 53.4375 36.4117 53.4375C37.5455 53.4375 38.6329 52.9871 39.4346 52.1854C40.2363 51.3837 40.6867 50.2963 40.6867 49.1625V36.1688C40.6867 35.0332 40.2369 33.9439 39.4357 33.1392C38.6346 32.3345 37.5472 31.88 36.4117 31.875ZM38.8117 49.1625C38.8117 49.799 38.5589 50.4095 38.1088 50.8596C37.6587 51.3096 37.0482 51.5625 36.4117 51.5625C35.7752 51.5625 35.1648 51.3096 34.7147 50.8596C34.2646 50.4095 34.0117 49.799 34.0117 49.1625V36.1688C34.0117 35.5322 34.2646 34.9218 34.7147 34.4717C35.1648 34.0216 35.7752 33.7688 36.4117 33.7688C37.0482 33.7688 37.6587 34.0216 38.1088 34.4717C38.5589 34.9218 38.8117 35.5322 38.8117 36.1688V49.1625Z" fill="#3C57DE"/>
<path d="M49.2188 19.5563C48.0963 19.5759 47.0261 20.0343 46.2375 20.8334C45.449 21.6325 45.0047 22.7086 45 23.8313V49.1813C45 50.3151 45.4504 51.4024 46.2521 52.2042C47.0538 53.0059 48.1412 53.4563 49.275 53.4563C50.4088 53.4563 51.4962 53.0059 52.2979 52.2042C53.0996 51.4024 53.55 50.3151 53.55 49.1813V23.8313C53.55 23.2651 53.4376 22.7046 53.2193 22.1822C53.0009 21.6598 52.681 21.186 52.2781 20.7883C51.8751 20.3906 51.3972 20.0769 50.872 19.8654C50.3468 19.6539 49.7849 19.5488 49.2188 19.5563ZM51.6188 49.1813C51.6188 49.4964 51.5567 49.8085 51.4361 50.0997C51.3154 50.3909 51.1387 50.6555 50.9158 50.8783C50.6929 51.1012 50.4284 51.278 50.1372 51.3986C49.846 51.5192 49.5339 51.5813 49.2188 51.5813C48.9036 51.5813 48.5915 51.5192 48.3003 51.3986C48.0091 51.278 47.7446 51.1012 47.5217 50.8783C47.2988 50.6555 47.1221 50.3909 47.0014 50.0997C46.8808 49.8085 46.8187 49.4964 46.8187 49.1813V23.8313C46.8187 23.1948 47.0716 22.5843 47.5217 22.1342C47.9718 21.6841 48.5822 21.4313 49.2188 21.4313C49.8553 21.4313 50.4657 21.6841 50.9158 22.1342C51.3659 22.5843 51.6188 23.1948 51.6188 23.8313V49.1813Z" fill="#3C57DE"/>
<path d="M10.7808 25.6688C11.9014 25.6639 12.9744 25.2152 13.765 24.4211C14.5557 23.6269 14.9995 22.5519 14.9995 21.4313C15.0063 20.5494 14.7303 19.6886 14.212 18.9751L20.887 14.0626C21.6536 14.6742 22.6064 15.0051 23.587 15.0001C24.661 15.0056 25.6956 14.5958 26.4745 13.8563L32.962 18.9188C32.4356 19.6364 32.153 20.5038 32.1558 21.3938C32.2274 22.4714 32.706 23.4814 33.4946 24.2193C34.2831 24.9572 35.3227 25.3677 36.4027 25.3677C37.4826 25.3677 38.5222 24.9572 39.3107 24.2193C40.0993 23.4814 40.5779 22.4714 40.6495 21.3938C40.6477 20.6509 40.4539 19.9211 40.087 19.2751L46.8745 14.2688C47.6639 14.8015 48.609 15.0541 49.5588 14.9862C50.5087 14.9183 51.4083 14.5338 52.1138 13.8943C52.8194 13.2548 53.2901 12.3971 53.4507 11.4585C53.6112 10.5199 53.4524 9.55453 52.9996 8.71683C52.5468 7.87913 51.8262 7.21747 50.9529 6.83767C50.0797 6.45788 49.1043 6.38189 48.1828 6.62186C47.2613 6.86182 46.4468 7.40388 45.8698 8.16134C45.2927 8.9188 44.9863 9.84791 44.9995 10.8001C45.0036 11.5225 45.1907 12.2321 45.5433 12.8626L38.812 17.9251C38.1724 17.4784 37.4202 17.2205 36.6412 17.1808C35.8621 17.141 35.0875 17.3209 34.4058 17.7001L27.5433 12.3376C27.7397 11.8487 27.8415 11.3269 27.8433 10.8001C27.8819 10.2186 27.8008 9.63544 27.6049 9.08665C27.4089 8.53785 27.1024 8.03513 26.7042 7.60964C26.3061 7.18414 25.8248 6.84494 25.2902 6.61303C24.7556 6.38113 24.1791 6.26147 23.5964 6.26147C23.0137 6.26147 22.4372 6.38113 21.9026 6.61303C21.368 6.84494 20.8867 7.18414 20.4886 7.60964C20.0904 8.03513 19.7839 8.53785 19.588 9.08665C19.392 9.63544 19.3109 10.2186 19.3495 10.8001C19.3398 11.4466 19.4743 12.0871 19.7433 12.6751L12.8058 17.7188C12.1876 17.3693 11.4909 17.1822 10.7808 17.1751C10.1993 17.1364 9.61616 17.2176 9.06736 17.4135C8.51856 17.6094 8.01584 17.916 7.59035 18.3141C7.16486 18.7122 6.82565 19.1935 6.59375 19.7281C6.36185 20.2627 6.24219 20.8392 6.24219 21.4219C6.24219 22.0047 6.36185 22.5812 6.59375 23.1158C6.82565 23.6504 7.16486 24.1316 7.59035 24.5298C8.01584 24.9279 8.51856 25.2345 9.06736 25.4304C9.61616 25.6263 10.1993 25.7075 10.7808 25.6688ZM49.2183 8.41882C49.5475 8.38952 49.8792 8.42907 50.1923 8.53496C50.5054 8.64084 50.793 8.81074 51.0368 9.03384C51.2806 9.25695 51.4754 9.52837 51.6086 9.83083C51.7418 10.1333 51.8106 10.4602 51.8106 10.7907C51.8106 11.1212 51.7418 11.4481 51.6086 11.7505C51.4754 12.053 51.2806 12.3244 51.0368 12.5475C50.793 12.7706 50.5054 12.9405 50.1923 13.0464C49.8792 13.1523 49.5475 13.1919 49.2183 13.1626C48.6256 13.1098 48.0742 12.8371 47.6725 12.3981C47.2709 11.9591 47.0481 11.3857 47.0481 10.7907C47.0481 10.1957 47.2709 9.62224 47.6725 9.18326C48.0742 8.74427 48.6256 8.47156 49.2183 8.41882ZM38.7745 21.4313C38.7218 22.024 38.4491 22.5754 38.0101 22.9771C37.5711 23.3787 36.9977 23.6015 36.4027 23.6015C35.8077 23.6015 35.2342 23.3787 34.7952 22.9771C34.3562 22.5754 34.0835 22.024 34.0308 21.4313C34.0015 21.1021 34.041 20.7704 34.1469 20.4573C34.2528 20.1442 34.4227 19.8566 34.6458 19.6128C34.8689 19.3689 35.1403 19.1742 35.4428 19.041C35.7453 18.9078 36.0721 18.839 36.4027 18.839C36.7332 18.839 37.06 18.9078 37.3625 19.041C37.665 19.1742 37.9364 19.3689 38.1595 19.6128C38.3826 19.8566 38.5525 20.1442 38.6584 20.4573C38.7643 20.7704 38.8038 21.1021 38.7745 21.4313ZM23.587 8.41882C23.9162 8.38952 24.2479 8.42907 24.561 8.53496C24.8741 8.64084 25.1617 8.81074 25.4056 9.03384C25.6494 9.25695 25.8441 9.52837 25.9773 9.83083C26.1106 10.1333 26.1794 10.4602 26.1794 10.7907C26.1794 11.1212 26.1106 11.4481 25.9773 11.7505C25.8441 12.053 25.6494 12.3244 25.4056 12.5475C25.1617 12.7706 24.8741 12.9405 24.561 13.0464C24.2479 13.1523 23.9162 13.1919 23.587 13.1626C22.9944 13.1098 22.4429 12.8371 22.0413 12.3981C21.6396 11.9591 21.4169 11.3857 21.4169 10.7907C21.4169 10.1957 21.6396 9.62224 22.0413 9.18326C22.4429 8.74427 22.9944 8.47156 23.587 8.41882ZM10.7808 19.0501C11.2517 19.0501 11.7121 19.1897 12.1037 19.4514C12.4953 19.713 12.8005 20.0849 12.9808 20.5201C13.161 20.9552 13.2082 21.434 13.1163 21.8959C13.0244 22.3578 12.7976 22.7821 12.4646 23.1151C12.1316 23.4481 11.7073 23.6749 11.2453 23.7668C10.7834 23.8587 10.3046 23.8115 9.86951 23.6313C9.4344 23.4511 9.0625 23.1459 8.80084 22.7543C8.53919 22.3627 8.39953 21.9023 8.39953 21.4313C8.39703 21.1179 8.45692 20.8071 8.5757 20.5171C8.69449 20.2271 8.8698 19.9636 9.09141 19.742C9.31303 19.5203 9.57653 19.345 9.86657 19.2262C10.1566 19.1075 10.4674 19.0476 10.7808 19.0501Z" fill="#3C57DE"/>
</svg>
