<svg width="60" height="60" viewBox="0 0 60 60" fill="none" xmlns="http://www.w3.org/2000/svg">
<g clip-path="url(#clip0_145_344)">
<path d="M29.7016 60C28.9012 60 28.1383 59.7468 27.4973 59.2687C26.8551 58.7906 26.3945 58.132 26.166 57.3656L15.0941 20.2207C14.9793 19.8386 14.9219 19.4425 14.9219 19.0429C14.9219 18.5037 15.0262 17.9764 15.2312 17.4761C15.4398 16.9699 15.741 16.5175 16.1289 16.1296C16.5156 15.7417 16.9691 15.4406 17.4754 15.232C17.9746 15.0269 18.502 14.9226 19.041 14.9226C19.4418 14.9226 19.8367 14.98 20.2199 15.0937L37.4992 20.2453H37.5004C38.1191 20.4292 38.473 21.0843 38.2879 21.7031C38.2141 21.9502 38.0664 22.16 37.859 22.3123C37.5673 22.5268 37.1793 22.5948 36.8302 22.4916L19.5497 17.3401C19.3857 17.2908 19.2146 17.2662 19.0435 17.2662C18.5677 17.2662 18.1212 17.4514 17.7861 17.7866C17.4509 18.1228 17.2657 18.5682 17.2657 19.0428C17.2657 19.2151 17.2904 19.3862 17.3396 19.5502L28.4126 56.6951C28.5802 57.2612 29.1111 57.6561 29.7017 57.6561C30.2337 57.6561 30.7165 57.3409 30.9321 56.8545L38.6911 39.2905C38.8083 39.0268 39.0263 38.8076 39.29 38.6916L56.854 30.9315C57.3414 30.717 57.6556 30.2342 57.6556 29.7022C57.6556 29.1116 57.2607 28.5817 56.6946 28.4131L46.9376 25.5045C46.6375 25.4143 46.3904 25.214 46.2415 24.9385C46.0927 24.6631 46.0599 24.3467 46.1489 24.0468C46.2228 23.7996 46.3705 23.5886 46.5779 23.4375C46.8696 23.223 47.2575 23.1539 47.6068 23.2582L57.365 26.1667C58.1314 26.3953 58.79 26.8558 59.2681 27.4979C59.7462 28.139 59.9993 28.9018 59.9993 29.7023C59.9993 31.1613 59.1368 32.4867 57.8009 33.0761L40.6516 40.6522L33.0754 57.8015C32.4859 59.1375 31.1617 60 29.7016 60ZM42.2184 24.0468C42.1059 24.0468 41.9934 24.0303 41.8833 23.9976C41.2646 23.8136 40.9105 23.1585 41.0957 22.5398C41.1684 22.2937 41.3173 22.0828 41.5246 21.9304C41.8164 21.716 42.2043 21.648 42.5535 21.7511C43.1723 21.9363 43.5262 22.5902 43.341 23.2101C43.2684 23.4563 43.1195 23.6671 42.9121 23.8195C42.7116 23.966 42.4656 24.0468 42.2184 24.0468Z" fill="#3C57DE"/>
<path d="M28.3415 43.8285C27.8338 43.8285 27.366 43.4958 27.2169 42.9838L24.9317 35.1323C24.7509 34.5107 25.108 33.8603 25.7294 33.6796C26.3507 33.4986 27.0012 33.856 27.1821 34.4773L29.4673 42.3289C29.6481 42.9504 29.291 43.6008 28.6696 43.7815C28.5603 43.8133 28.4499 43.8285 28.3415 43.8285Z" fill="#3C57DE"/>
<path d="M5.26755 28.812C4.96767 28.812 4.66767 28.6975 4.43892 28.4688C3.9813 28.0112 3.9813 27.2691 4.43892 26.8114L7.33931 23.911C7.79692 23.4535 8.53895 23.4535 8.99669 23.911C9.45431 24.3686 9.45431 25.1106 8.99669 25.5684L6.0963 28.4688C5.86743 28.6976 5.56755 28.812 5.26755 28.812Z" fill="#3C57DE"/>
<path d="M24.7402 9.33911C24.4403 9.33911 24.1403 9.22462 23.9116 8.99587C23.454 8.53825 23.454 7.79622 23.9116 7.33849L26.812 4.4381C27.2696 3.9806 28.0116 3.9806 28.4693 4.4381C28.927 4.89571 28.927 5.63774 28.4693 6.09548L25.569 8.99587C25.3401 9.22474 25.0401 9.33911 24.7402 9.33911Z" fill="#3C57DE"/>
<path d="M1.1714 21.7202C0.653902 21.7202 0.180348 21.3748 0.0401914 20.8511C-0.12727 20.2259 0.243863 19.5835 0.869059 19.416L4.82882 18.3555C5.45367 18.1878 6.09644 18.5589 6.26402 19.1842C6.43148 19.8094 6.06035 20.4518 5.43515 20.6193L1.47539 21.6798C1.37379 21.707 1.27183 21.7202 1.1714 21.7202Z" fill="#3C57DE"/>
<path d="M27.7749 14.5918C27.2574 14.5918 26.7839 14.2465 26.6437 13.7227C26.4762 13.0975 26.8474 12.4551 27.4726 12.2877L31.4323 11.2271C32.0581 11.0592 32.7001 11.4308 32.8674 12.0559C33.0349 12.6811 32.6639 13.3235 32.0387 13.4909L28.0789 14.5515C27.9773 14.5787 27.8752 14.5918 27.7749 14.5918Z" fill="#3C57DE"/>
<path d="M5.13265 14.5918C5.03234 14.5918 4.93027 14.5788 4.82878 14.5515L0.869018 13.491C0.243823 13.3235 -0.127192 12.6811 0.0401514 12.0559C0.207495 11.4307 0.850034 11.0592 1.47535 11.2271L5.43511 12.2877C6.06031 12.4551 6.43132 13.0976 6.26398 13.7228C6.12359 14.2462 5.65003 14.5918 5.13265 14.5918Z" fill="#3C57DE"/>
<path d="M8.16794 9.33911C7.86806 9.33911 7.56806 9.22462 7.33931 8.99587L4.43892 6.09548C3.9813 5.63786 3.9813 4.89583 4.43892 4.4381C4.89653 3.9806 5.63856 3.9806 6.0963 4.4381L8.99669 7.33849C9.45431 7.7961 9.45431 8.53814 8.99669 8.99587C8.76782 9.22474 8.46794 9.33911 8.16794 9.33911Z" fill="#3C57DE"/>
<path d="M13.4194 6.30419C12.9019 6.30419 12.4284 5.95884 12.2882 5.43513L11.2277 1.47537C11.0602 0.85017 11.4314 0.207749 12.0566 0.0402876C12.6815 -0.127408 13.3243 0.243725 13.4918 0.869038L14.5523 4.8288C14.7198 5.454 14.3486 6.09642 13.7234 6.26388C13.6218 6.29107 13.5198 6.30419 13.4194 6.30419Z" fill="#3C57DE"/>
<path d="M19.4873 6.30419C19.387 6.30419 19.285 6.29118 19.1835 6.26387C18.5583 6.09641 18.1873 5.45399 18.3546 4.8288L19.4152 0.86903C19.5826 0.243834 20.225 -0.127415 20.8503 0.0402798C21.4755 0.207741 21.8466 0.850163 21.6792 1.47536L20.6187 5.43512C20.4783 5.95872 20.0047 6.30419 19.4873 6.30419Z" fill="#3C57DE"/>
<path d="M12.3604 32.907C12.2601 32.907 12.158 32.894 12.0565 32.8667C11.4313 32.6993 11.0603 32.0569 11.2277 31.4317L12.2882 27.4719C12.4557 26.8467 13.0982 26.4752 13.7234 26.6431C14.3486 26.8106 14.7196 27.453 14.5523 28.0782L13.4917 32.038C13.3513 32.5615 12.8778 32.907 12.3604 32.907Z" fill="#3C57DE"/>
</g>
<defs>
<clipPath id="clip0_145_344">
<rect width="60" height="60" fill="white"/>
</clipPath>
</defs>
</svg>
